# xmcd
#
# Track frame offsets:
#	150
#	14467
#	27547
#	42472
#	56177
#	71000
#	86090
#	98445
#	110060
#	124445
#	135760
#	148032
#	172795
#	188117
#	207115
#	219765
#	234495
#	246042
#	268930
#	279812
#
# Disc length: 3957 seconds
#
# Revision: 1
# Processed by: cddbd v1.4b41PL2 Copyright (c) Steve Scherf et al.
# Submitted via: audiograbber 1.80
#
DISCID=200f7314
DTITLE=Various Artist - Green Velvet Volume One
DYEAR=1900
DGENRE=
TTITLE0=Daniel O'donnell - Forty Shades Of Green
TTITLE1=Margo - When Irish Eyes Are Smiling
TTITLE2=The Poor Scholars - The Ramblin' Man
TTITLE3=Mick Lube - The Ofaly Rover
TTITLE4=Glen Curtin - Sweet Sixteen
TTITLE5=Des Smyth - Cuttin' The Corn Around Creeslough
TTITLE6=David Parkes - Slievenamon
TTITLE7=John Macnally - Mother Machree
TTITLE8=The Dubliners - The Wild Rover
TTITLE9=Johnny Mcevoy - Mursheen Durkin
TTITLE10=Michael O'duffy - Little Town Of Ould Country Down
TTITLE11=Dermot O'brien - Girl From Clare
TTITLE12=John MaacNally - The Rose Of Tralee
TTITLE13=Glen Curtin - If We Only Had Ireland Over Here
TTITLE14=Des Smyth - Terence's Goodbye To Kathleen
TTITLE15=David Parkes - The Old Bog Road
TTITLE16=John Kelly - Black Velvet Band
TTITLE17=Dermot O'brien - Rare Old Times
TTITLE18=Johnny Mcevoy - Tarry Flynn
TTITLE19=Glen Curtin - Wild Colonial Boy
EXTD=
EXTT0=
EXTT1=
EXTT2=
EXTT3=
EXTT4=
EXTT5=
EXTT6=
EXTT7=
EXTT8=
EXTT9=
EXTT10=
EXTT11=
EXTT12=
EXTT13=
EXTT14=
EXTT15=
EXTT16=
EXTT17=
EXTT18=
EXTT19=
PLAYORDER=
